<?xml version="1.0" encoding="UTF-8" standalone="no"?>
<!-- Created with Inkscape (http://www.inkscape.org/) -->

<svg
   xmlns:osb="http://www.openswatchbook.org/uri/2009/osb"
   xmlns:dc="http://purl.org/dc/elements/1.1/"
   xmlns:cc="http://creativecommons.org/ns#"
   xmlns:rdf="http://www.w3.org/1999/02/22-rdf-syntax-ns#"
   xmlns:svg="http://www.w3.org/2000/svg"
   xmlns="http://www.w3.org/2000/svg"
   xmlns:sodipodi="http://sodipodi.sourceforge.net/DTD/sodipodi-0.dtd"
   xmlns:inkscape="http://www.inkscape.org/namespaces/inkscape"
   width="314mm"
   height="196mm"
   viewBox="0 0 314 196"
   version="1.1"
   id="svg8"
   inkscape:version="0.92.3 (2405546, 2018-03-11)"
   sodipodi:docname="szabat_XDD.svg">
  <defs
     id="defs2">
    <linearGradient
       id="linearGradient6019"
       osb:paint="solid">
      <stop
         style="stop-color:#000000;stop-opacity:1;"
         offset="0"
         id="stop6017" />
    </linearGradient>
  </defs>
  <sodipodi:namedview
     id="base"
     pagecolor="#ffffff"
     bordercolor="#666666"
     borderopacity="1.0"
     inkscape:pageopacity="0.0"
     inkscape:pageshadow="2"
     inkscape:zoom="0.7"
     inkscape:cx="124.54081"
     inkscape:cy="546.5024"
     inkscape:document-units="mm"
     inkscape:current-layer="layer1"
     showgrid="false"
     showguides="true"
     inkscape:guide-bbox="true"
     inkscape:window-width="1851"
     inkscape:window-height="1021"
     inkscape:window-x="69"
     inkscape:window-y="27"
     inkscape:window-maximized="1">
    <sodipodi:guide
       position="176.51488,98.273811"
       orientation="0,1"
       id="guide4549"
       inkscape:locked="false" />
    <sodipodi:guide
       position="151.94643,166.30952"
       orientation="1,0"
       id="guide4551"
       inkscape:locked="false" />
  </sodipodi:namedview>
  <metadata
     id="metadata5">
    <rdf:RDF>
      <cc:Work
         rdf:about="">
        <dc:format>image/svg+xml</dc:format>
        <dc:type
           rdf:resource="http://purl.org/dc/dcmitype/StillImage" />
        <dc:title></dc:title>
      </cc:Work>
    </rdf:RDF>
  </metadata>
  <g
     inkscape:label="Layer 1"
     inkscape:groupmode="layer"
     id="layer1"
     transform="translate(0,-101)">
    <path
       style="fill:none;stroke:#000000;stroke-width:8.67013645;stroke-miterlimit:4;stroke-dasharray:none;stroke-opacity:1"
       d="m 152.89159,158.66662 a 38.736465,40.626347 0 0 0 -19.06137,5.31647 l 18.11621,34.7431 -36.89491,-8.01553 a 38.736465,40.626347 0 0 0 -0.89659,8.58242 38.736465,40.626347 0 0 0 38.73666,40.62646 38.736465,40.626347 0 0 0 38.73665,-40.62646 38.736465,40.626347 0 0 0 -38.73665,-40.62646 z"
       id="path4553"
       inkscape:connector-curvature="0" />
    <path
       style="fill:#000000;fill-opacity:1;stroke:none;stroke-width:21.82214165;stroke-miterlimit:4;stroke-dasharray:none;stroke-opacity:1"
       d="m 151.94643,168.70735 a 28.884868,30.585766 0 0 0 -17.11102,5.98757 l 8.13148,16.00456 -17.63449,-3.2907 a 28.884868,30.585766 0 0 0 -2.27066,11.88458 28.884868,30.585766 0 0 0 28.88469,30.58552 28.884868,30.585766 0 0 0 28.88469,-30.58552 28.884868,30.585766 0 0 0 -28.88469,-30.58601 z"
       id="path4557"
       inkscape:connector-curvature="0" />
  </g>
  <g
     transform="translate(0,-101)"
     id="g6122"
     inkscape:groupmode="layer"
     inkscape:label="Layer 1 kopia" />
  <g
     inkscape:label="Layer 1 kopia kopia"
     inkscape:groupmode="layer"
     id="g6134"
     transform="translate(0,-101)" />
  <g
     transform="translate(0,-101)"
     id="g6162"
     inkscape:groupmode="layer"
     inkscape:label="Layer 1 kopia kopia kopia">
    <path
       inkscape:connector-curvature="0"
       id="path6154"
       d="m 151.94643,150.34206 a 79.849564,79.391649 0 0 0 -73.547122,48.47838 80.03092,79.67831 0 0 0 73.930852,49.33578 80.03092,79.67831 0 0 0 73.5415,-48.29609 79.849564,79.391649 0 0 0 -73.92523,-49.51807 z"
       style="fill:none;stroke:#000000;stroke-width:9.80997658;stroke-miterlimit:4;stroke-dasharray:none;stroke-opacity:1" />
  </g>
</svg>
